{"title":"I.Just.Want.My.Pants.Back.S01E09.HDTV.XviD-Tallyortoby.avi","uid":7108133,"size":175429796,"categoryP":"video","categoryS":"tv_shows","magnet":"?xt=urn:btih:269d58be63d8ce942d971bda41c0ee1451317a33&amp;dn=I.Just.Want.My.Pants.Back.S01E09.HDTV.XviD-Tallyortoby.avi&amp;tr=udp%3A%2F%2Ftracker.openbittorrent.com%3A80&amp;tr=udp%3A%2F%2Fopen.demonii.com%3A1337&amp;tr=udp%3A%2F%2Ftracker.coppersurfer.tk%3A6969&amp;tr=udp%3A%2F%2Fexodus.desync.com%3A6969","seeders":0,"leechers":0,"uploader":"Tallyortoby","files":1,"time":1331936959,"description":"Format                           : AVI\nFormat/Info                      : Audio Video Interleave\nFile size                        : 167 MiB\nDuration                         : 20mn 44s\nOverall bit rate                 : 1 128 Kbps\nMovie name                       : I.Just.Want.My.Pants.Back.S01E09.720p.HDTV.x264-IMMERSE.mkv\nDirector                         : created.with.SUPER(C).v2012.bld.50\nWriting application              : SUPER(C)   \n\nVideo\nID                               : 0\nFormat                           : MPEG-4 Visual\nFormat profile                   : Advanced Simple@L5\nFormat settings, BVOP            : No\nFormat settings, QPel            : No\nFormat settings, GMC             : No warppoints\nFormat settings, Matrix          : Default (H.263)\nCodec ID                         : XVID\nCodec ID/Hint                    : XviD\nDuration                         : 20mn 44s\nBit rate                         : 987 Kbps\nWidth                            : 624 pixels\nHeight                           : 352 pixels\nDisplay aspect ratio             : 16:9\nFrame rate                       : 23.976 fps\nColor space                      : YUV\nChroma subsampling               : 4:2:0\nBit depth                        : 8 bits\nScan type                        : Progressive\nBits/(Pixel*Frame)               : 0.187\nStream size                      : 146 MiB (88%)\nWriting library                  : SUPER(C)   \n\nAudio\nID                               : 1\nFormat                           : MPEG Audio\nFormat version                   : Version 1\nFormat profile                   : Layer 3\nMode                             : Joint stereo\nMode extension                   : MS Stereo\nCodec ID                         : 55\nCodec ID/Hint                    : MP3\nDuration                         : 20mn 44s\nBit rate mode                    : Constant\nBit rate                         : 128 Kbps\nChannel(s)                       : 2 channels\nSampling rate                    : 48.0 KHz\nStream size                      : 19.0 MiB (11%)\nAlignment                        : Aligned on interleaves\nInterleave, duration             : 24 ms (0.58 video frame)","torrent":{"xt":"urn:btih:269d58be63d8ce942d971bda41c0ee1451317a33","amp;dn":"I.Just.Want.My.Pants.Back.S01E09.HDTV.XviD-Tallyortoby.avi","amp;tr":["udp%3A%2F%2Ftracker.openbittorrent.com%3A80","udp%3A%2F%2Fopen.demonii.com%3A1337","udp%3A%2F%2Ftracker.coppersurfer.tk%3A6969","udp%3A%2F%2Fexodus.desync.com%3A6969"],"infoHash":"269d58be63d8ce942d971bda41c0ee1451317a33","infoHashBuffer":{"type":"Buffer","data":[38,157,88,190,99,216,206,148,45,151,27,218,65,192,238,20,81,49,122,51]},"announce":[],"urlList":[]}}